<?xml version="1.0" encoding="utf-8"?>
<!-- Generator: Adobe Illustrator 18.0.0, SVG Export Plug-In . SVG Version: 6.00 Build 0)  -->
<!DOCTYPE svg PUBLIC "-//W3C//DTD SVG 1.1//EN" "http://www.w3.org/Graphics/SVG/1.1/DTD/svg11.dtd">
<svg version="1.1" id="Layer_1" xmlns="http://www.w3.org/2000/svg" xmlns:xlink="http://www.w3.org/1999/xlink" x="0px" y="0px"
	 viewBox="0 0 960 560" enable-background="new 0 0 960 560" xml:space="preserve">
<g>
	<path fill="#FFFFFF" d="M325.9,271c1.4-3.2,17.5-45,22.2-55.2h0.8c4.9,7.9,16.7,27.5,19.2,31.6c3.1-4.7,14.4-23.4,18.6-30.3h0.8
		c5.5,11.8,21.6,48.2,23.8,52.6l-16.2,7.2c-2.6-6.4-10.2-26.7-11-28.9c-1,1.4-11.2,17.2-17.2,25.6H366c-6.2-9.3-14.6-22.9-15.8-25.3
		c-1.4,4.2-7.1,24.8-8.6,28.6L325.9,271z"/>
	<path fill="#FFFFFF" d="M412.1,268.4c2.4-4.1,24.6-41.6,32.3-53.8h0.8c9.6,14.5,31.1,48.3,34.5,52.9l-15.8,9.4
		c-2.3-3.9-6.4-11-7.2-12.4l-24.1,1.4c-0.6,1.1-3.5,7.4-5.3,11.1L412.1,268.4z M451.2,253.2c-2.2-4.6-5.3-10.2-6.7-13.5
		c-1.9,3.8-4.7,9.8-6.8,14.2L451.2,253.2z"/>
	<path fill="#FFFFFF" d="M481.4,265.4c1.4-1.7,16-17.2,18.3-19.8c-4.1-4.4-15.4-17-16.6-18.3l13.7-12.5c3.4,4.4,12.8,16.5,15,19.1
		c2.2-2.6,12.5-15,15.8-19.1l12.8,11.8c-1.9,2.1-15.9,15.8-18,18.2c2.9,3,16.9,18.3,18.4,20l-13.6,12.7c-2.6-3.2-14.2-17.4-17-20.8
		c-1.8,2-15,18.9-16.7,21L481.4,265.4z"/>
	<path fill="#FFFFFF" d="M570,250.2c0,8,0.2,22.3,0.3,24.2h-18.6c0.2-3.5,0.2-22.2,0.2-24.3v-8.6c0-1.4-0.2-21.9-0.2-23.8h18.6
		c-0.1,1.4-0.3,14.4-0.3,24V250.2z"/>
	<path fill="#FFFFFF" d="M594.7,220.6l-8.6,15.9l-5.6-2.6l4.6-17.7L594.7,220.6z"/>
	<path fill="#FFFFFF" d="M598.5,263.6c7.8,0.2,16.1-1.1,16.1-4.4c0-1.5-1.4-2.5-7.4-5.1c-4.6-2.1-10.7-5.4-10.7-11.8
		c0-8.4,11.8-16.6,31-17.7l1.9,12.3c-9.9,0-15,0.6-15,3.5c0,1.8,2.6,2.7,7.4,4.6c3.9,1.5,11,4.4,11,11.2c0,8.3-9.5,17.8-32.4,19.5
		L598.5,263.6z"/>
</g>
<g>
	<path fill="#FFFFFF" d="M430.7,345.5c-1-0.2-6.6-0.3-14.2-0.4c-7.6-0.2-17.2-0.2-26.2-0.2h-3l-1.2-2.8c5.6-5,23.3-18.7,23.3-29.5
		c0-10.5-12.4-12.3-19.7-12.6l2.6-13.3c25.7,2.2,35.9,11.8,35.9,22.1c0,12.3-11.7,19.6-15.1,22.2v0.6l17.6-1V345.5z"/>
	<path fill="#FFFFFF" d="M446.7,317.5c0-16.1,12.3-28.2,31.8-28.2c18.1,0,28.8,11.4,28.8,26.1s-10.2,28.1-30.6,28.1
		C459,343.5,446.7,334.2,446.7,317.5z M488.8,315.8c0-10.7-6.6-13.4-11.3-13.4c-5.2,0-12.5,2.9-12.4,14.6
		c0.1,10.6,6.9,13.5,12.1,13.5C482.4,330.4,488.8,326.7,488.8,315.8z"/>
	<path fill="#FFFFFF" d="M512.1,317.5c0-16.1,12.3-28.2,31.8-28.2c18.1,0,28.8,11.4,28.8,26.1s-10.2,28.1-30.6,28.1
		C524.4,343.5,512.1,334.2,512.1,317.5z M554.2,315.8c0-10.7-6.6-13.4-11.3-13.4c-5.2,0-12.5,2.9-12.4,14.6
		c0.1,10.6,6.9,13.5,12.1,13.5S554.2,326.7,554.2,315.8z"/>
</g>
</svg>
